<svg width="122" height="65" viewBox="0 0 122 65" fill="none" xmlns="http://www.w3.org/2000/svg">
<path d="M2 0V63H122" stroke="url(#paint0_linear)" stroke-width="3"/>
<path d="M22.799 26H17.801V15.353H14.147V11.132H26.453V15.353H22.799V26ZM25.818 14.954H30.48V16.214H30.522C30.76 15.766 31.11 15.395 31.572 15.101C32.048 14.807 32.601 14.66 33.231 14.66C33.609 14.66 33.917 14.695 34.155 14.765L33.777 18.881C33.623 18.839 33.448 18.811 33.252 18.797C33.07 18.769 32.902 18.755 32.748 18.755C32.118 18.755 31.614 18.937 31.236 19.301C30.858 19.665 30.669 20.113 30.669 20.645V26H25.818V14.954ZM40.7015 21.422C39.9875 21.422 39.4135 21.499 38.9795 21.653C38.5455 21.807 38.3285 22.094 38.3285 22.514C38.3285 22.668 38.3635 22.801 38.4335 22.913C38.5035 23.011 38.5945 23.095 38.7065 23.165C38.8185 23.235 38.9375 23.291 39.0635 23.333C39.2035 23.361 39.3295 23.375 39.4415 23.375C39.9035 23.375 40.2745 23.228 40.5545 22.934C40.8345 22.64 40.9745 22.262 40.9745 21.8V21.422H40.7015ZM40.6595 18.986C40.6595 18.65 40.5405 18.405 40.3025 18.251C40.0785 18.083 39.7775 17.999 39.3995 17.999C38.9515 17.999 38.5245 18.097 38.1185 18.293C37.7265 18.475 37.3765 18.692 37.0685 18.944L34.6535 16.55C35.3255 15.906 36.1235 15.409 37.0475 15.059C37.9715 14.709 38.9235 14.534 39.9035 14.534C40.9535 14.534 41.8215 14.681 42.5075 14.975C43.1935 15.269 43.7325 15.675 44.1245 16.193C44.5305 16.711 44.8105 17.313 44.9645 17.999C45.1325 18.685 45.2165 19.413 45.2165 20.183V26H40.8275V25.118H40.7855C40.5055 25.538 40.1065 25.839 39.5885 26.021C39.0705 26.203 38.5665 26.294 38.0765 26.294C37.6425 26.294 37.1945 26.231 36.7325 26.105C36.2845 25.979 35.8715 25.776 35.4935 25.496C35.1295 25.216 34.8285 24.852 34.5905 24.404C34.3525 23.956 34.2335 23.403 34.2335 22.745C34.2335 21.975 34.4295 21.352 34.8215 20.876C35.2275 20.386 35.7385 20.008 36.3545 19.742C36.9705 19.462 37.6565 19.273 38.4125 19.175C39.1825 19.077 39.9315 19.028 40.6595 19.028V18.986ZM46.7667 20.435C46.7667 19.721 46.8717 19.021 47.0817 18.335C47.3057 17.649 47.6277 17.033 48.0477 16.487C48.4677 15.941 48.9927 15.5 49.6227 15.164C50.2527 14.828 50.9807 14.66 51.8067 14.66C52.3387 14.66 52.8707 14.765 53.4027 14.975C53.9347 15.171 54.3617 15.458 54.6837 15.836H54.7257V10.124H59.5557V26H55.2087V24.845H55.1667C54.8447 25.293 54.3757 25.65 53.7597 25.916C53.1437 26.168 52.4927 26.294 51.8067 26.294C50.9807 26.294 50.2527 26.126 49.6227 25.79C48.9927 25.454 48.4677 25.013 48.0477 24.467C47.6277 23.907 47.3057 23.277 47.0817 22.577C46.8717 21.877 46.7667 21.163 46.7667 20.435ZM51.2607 20.435C51.2607 20.967 51.4147 21.415 51.7227 21.779C52.0307 22.129 52.4787 22.304 53.0667 22.304C53.6407 22.304 54.0957 22.122 54.4317 21.758C54.7817 21.394 54.9567 20.953 54.9567 20.435C54.9567 19.945 54.7817 19.518 54.4317 19.154C54.0957 18.79 53.6407 18.608 53.0667 18.608C52.4787 18.608 52.0307 18.79 51.7227 19.154C51.4147 19.518 51.2607 19.945 51.2607 20.435ZM69.1388 19.007C69.1388 18.615 68.9918 18.293 68.6978 18.041C68.4178 17.789 68.0328 17.663 67.5428 17.663C67.0108 17.663 66.5978 17.81 66.3038 18.104C66.0098 18.398 65.8418 18.699 65.7998 19.007H69.1388ZM73.3178 20.582C73.3178 20.764 73.3108 20.953 73.2968 21.149C73.2968 21.331 73.2898 21.485 73.2758 21.611H65.8418C65.8558 21.807 65.9188 21.982 66.0308 22.136C66.1568 22.29 66.3038 22.423 66.4718 22.535C66.6538 22.647 66.8498 22.731 67.0598 22.787C67.2838 22.843 67.5078 22.871 67.7318 22.871C68.1798 22.871 68.5508 22.794 68.8448 22.64C69.1528 22.472 69.3838 22.29 69.5378 22.094L72.9818 23.837C72.4918 24.635 71.7778 25.265 70.8398 25.727C69.9158 26.189 68.8378 26.42 67.6058 26.42C66.8078 26.42 66.0308 26.294 65.2748 26.042C64.5188 25.79 63.8468 25.419 63.2588 24.929C62.6848 24.425 62.2228 23.802 61.8728 23.06C61.5228 22.318 61.3478 21.457 61.3478 20.477C61.3478 19.567 61.5088 18.748 61.8308 18.02C62.1528 17.278 62.5868 16.655 63.1328 16.151C63.6928 15.633 64.3438 15.234 65.0858 14.954C65.8418 14.674 66.6468 14.534 67.5008 14.534C68.3688 14.534 69.1598 14.688 69.8738 14.996C70.5878 15.29 71.1968 15.71 71.7008 16.256C72.2188 16.788 72.6178 17.425 72.8978 18.167C73.1778 18.909 73.3178 19.714 73.3178 20.582ZM75.0163 14.954H79.6783V16.214H79.7203C79.9583 15.766 80.3083 15.395 80.7703 15.101C81.2463 14.807 81.7993 14.66 82.4293 14.66C82.8073 14.66 83.1153 14.695 83.3533 14.765L82.9753 18.881C82.8213 18.839 82.6463 18.811 82.4503 18.797C82.2683 18.769 82.1003 18.755 81.9463 18.755C81.3163 18.755 80.8123 18.937 80.4343 19.301C80.0563 19.665 79.8673 20.113 79.8673 20.645V26H75.0163V14.954ZM24.458 41.351H20.384V47H15.386V32.132H20.363V37.172H24.437V32.132H29.456V47H24.458V41.351ZM43.6469 47H38.9219V45.782H38.8799C38.5999 46.188 38.1799 46.545 37.6199 46.853C37.0739 47.147 36.4439 47.294 35.7299 47.294C34.9459 47.294 34.3019 47.161 33.7979 46.895C33.2939 46.615 32.8879 46.258 32.5799 45.824C32.2859 45.376 32.0759 44.879 31.9499 44.333C31.8379 43.773 31.7819 43.22 31.7819 42.674V35.954H36.6539V41.792C36.6539 42.352 36.7379 42.744 36.9059 42.968C37.0879 43.192 37.3539 43.304 37.7039 43.304C38.0259 43.304 38.2849 43.178 38.4809 42.926C38.6909 42.66 38.7959 42.282 38.7959 41.792V35.954H43.6469V47ZM58.6637 41.435C58.6637 42.163 58.5517 42.877 58.3277 43.577C58.1177 44.277 57.8027 44.907 57.3827 45.467C56.9627 46.013 56.4377 46.454 55.8077 46.79C55.1777 47.126 54.4497 47.294 53.6237 47.294C52.9377 47.294 52.2867 47.168 51.6707 46.916C51.0547 46.65 50.5857 46.293 50.2637 45.845H50.2217V47H45.8747V31.124H50.7047V36.836H50.7467C51.0687 36.458 51.4957 36.171 52.0277 35.975C52.5597 35.765 53.0917 35.66 53.6237 35.66C54.4497 35.66 55.1777 35.828 55.8077 36.164C56.4377 36.5 56.9627 36.941 57.3827 37.487C57.8027 38.033 58.1177 38.649 58.3277 39.335C58.5517 40.021 58.6637 40.721 58.6637 41.435ZM54.1697 41.435C54.1697 40.945 54.0157 40.518 53.7077 40.154C53.3997 39.79 52.9517 39.608 52.3637 39.608C51.7897 39.608 51.3277 39.79 50.9777 40.154C50.6417 40.518 50.4737 40.945 50.4737 41.435C50.4737 41.953 50.6417 42.394 50.9777 42.758C51.3277 43.122 51.7897 43.304 52.3637 43.304C52.9517 43.304 53.3997 43.129 53.7077 42.779C54.0157 42.415 54.1697 41.967 54.1697 41.435Z" fill="url(#paint1_linear)"/>
<defs>
<linearGradient id="paint0_linear" x1="122" y1="63" x2="0.180467" y2="12.2419" gradientUnits="userSpaceOnUse">
<stop stop-color="#FAC011"/>
<stop offset="1" stop-color="#4CA1AF"/>
</linearGradient>
<linearGradient id="paint1_linear" x1="84.5" y1="51" x2="10.485" y2="23.8226" gradientUnits="userSpaceOnUse">
<stop stop-color="#FAC011"/>
<stop offset="1" stop-color="#4CA1AF"/>
</linearGradient>
</defs>
</svg>
