<svg width="30" height="30" viewBox="0 0 30 30" fill="none" xmlns="http://www.w3.org/2000/svg">
<path fill-rule="evenodd" clip-rule="evenodd" d="M29.7512 14.6139C29.7248 6.53773 23.1493 0 15.0485 0C6.94485 0 0.370814 6.53773 0.344365 14.6139C0.344365 14.6064 0.343978 14.6 0.343601 14.5938C0.343244 14.588 0.342896 14.5822 0.342896 14.5758V14.6549V14.6593V14.6608V14.7399C0.342896 14.7297 0.342896 14.7179 0.344365 14.7062C0.369344 22.7839 6.94338 29.3245 15.0485 29.3245C23.1507 29.3245 29.7248 22.7868 29.7512 14.7106C29.7512 14.7172 29.7516 14.7234 29.752 14.7297C29.7521 14.7326 29.7523 14.7356 29.7524 14.7386C29.7526 14.7419 29.7527 14.7453 29.7527 14.7487V14.6696V14.6623V14.6549V14.5758C29.7527 14.5905 29.7512 14.6007 29.7512 14.6139ZM11.0416 21.3289C7.35486 21.3289 4.35878 18.3414 4.35878 14.6637C4.35878 10.9861 7.35486 7.99854 11.0416 7.99854C12.8489 7.99854 14.3594 8.65934 15.5173 9.73919L13.6145 11.578C13.1369 11.1253 12.2935 10.5919 11.0416 10.5919C8.83013 10.5919 7.02572 12.4249 7.02572 14.6725C7.02572 16.9187 8.8316 18.7516 11.0416 18.7516C13.6012 18.7516 14.5446 16.9846 14.718 15.9385H11.0386V15.9326V13.4506H17.2909C17.3878 13.8696 17.4598 14.2623 17.4598 14.8161C17.4598 18.6212 14.9002 21.3289 11.0416 21.3289ZM23.7356 15.3289H26.4084V13.3304H23.7356V10.6637H21.7313V13.3304H19.057V15.3289H21.7313V17.9941H23.7356V15.3289Z" fill="white"/>
</svg>
