<svg width="81" height="43" viewBox="0 0 81 43" fill="none" xmlns="http://www.w3.org/2000/svg">
<path d="M1 0V42H81" stroke="url(#paint0_linear)" stroke-width="2"/>
<path d="M12.066 20H15.342V12.972H18.226V10.2H9.182V12.972H12.066V20ZM18.8823 20H22.0603V18.054C22.0603 16.36 22.7743 15.618 24.1183 15.618H24.4543V12.244C23.1803 12.188 22.4943 12.874 22.0603 13.896V12.356H18.8823V20ZM26.8501 20.182C27.8021 20.182 28.5021 19.804 29.0481 19.23V20H32.2261V15.646C32.2261 14.526 32.0021 13.798 31.4281 13.224C30.7561 12.552 29.7621 12.23 28.1941 12.23C26.8501 12.23 25.8701 12.454 24.9741 12.79L25.5341 14.904C26.2061 14.638 26.8641 14.47 27.6481 14.47C28.6421 14.47 29.0621 14.862 29.0621 15.576V15.702C28.7261 15.548 27.9001 15.422 27.2561 15.422C25.4641 15.422 24.3441 16.276 24.3441 17.802V17.83C24.3441 19.342 25.3801 20.182 26.8501 20.182ZM28.1101 18.348C27.7041 18.348 27.3821 18.054 27.3821 17.606V17.578C27.3821 17.088 27.7321 16.724 28.3621 16.724C28.6281 16.724 28.9081 16.78 29.0901 16.85V17.172C29.0901 17.9 28.6701 18.348 28.1101 18.348ZM36.1943 20.182C37.3563 20.182 37.9443 19.622 38.4623 19.062V20H41.6403V9.78H38.4623V13.224C37.9723 12.678 37.3283 12.174 36.1663 12.174C34.3743 12.174 32.9043 13.784 32.9043 16.206V16.234C32.9043 18.572 34.3463 20.182 36.1943 20.182ZM37.2583 17.564C36.5303 17.564 35.9843 16.976 35.9843 16.192V16.164C35.9843 15.38 36.5303 14.792 37.2583 14.792C37.9863 14.792 38.5323 15.408 38.5323 16.164V16.192C38.5323 16.976 37.9863 17.564 37.2583 17.564ZM46.5513 20.182C48.2173 20.182 49.2673 19.51 50.0373 18.516L48.3293 17.158C47.8253 17.676 47.3493 17.942 46.7753 17.942C46.0893 17.942 45.5573 17.592 45.3333 16.92H50.2473C50.2613 16.752 50.2613 16.556 50.2613 16.388C50.2613 14.064 49.0153 12.174 46.2853 12.174C43.9893 12.174 42.3513 13.91 42.3513 16.192V16.22C42.3513 18.6 44.0313 20.182 46.5513 20.182ZM45.2913 15.52C45.3893 14.806 45.7533 14.372 46.2993 14.372C46.8593 14.372 47.2933 14.792 47.3633 15.52H45.2913ZM50.9565 20H54.1345V18.054C54.1345 16.36 54.8485 15.618 56.1925 15.618H56.5285V12.244C55.2545 12.188 54.5685 12.874 54.1345 13.896V12.356H50.9565V20ZM9.56 34H12.836V30.486H15.832V34H19.108V24.2H15.832V27.658H12.836V24.2H9.56V34ZM22.7021 34.182C23.7801 34.182 24.5501 33.608 25.0401 32.978V34H28.2181V26.356H25.0401V30.374C25.0401 31.032 24.6201 31.41 24.1301 31.41C23.6401 31.41 23.2621 31.032 23.2621 30.374V26.356H20.0841V31.396C20.0841 33.132 21.0781 34.182 22.7021 34.182ZM34.6375 34.182C36.4295 34.182 37.8995 32.572 37.8995 30.15V30.122C37.8995 27.784 36.4575 26.174 34.6095 26.174C33.4475 26.174 32.8595 26.734 32.3415 27.294V23.78H29.1635V34H32.3415V33.132C32.8315 33.678 33.4755 34.182 34.6375 34.182ZM33.5455 31.564C32.8175 31.564 32.2715 30.948 32.2715 30.192V30.164C32.2715 29.38 32.8175 28.792 33.5455 28.792C34.2735 28.792 34.8195 29.38 34.8195 30.164V30.192C34.8195 30.976 34.2735 31.564 33.5455 31.564Z" fill="url(#paint1_linear)"/>
<defs>
<linearGradient id="paint0_linear" x1="81" y1="42" x2="-0.213022" y2="8.16124" gradientUnits="userSpaceOnUse">
<stop stop-color="#FAC011"/>
<stop offset="1" stop-color="#4CA1AF"/>
</linearGradient>
<linearGradient id="paint1_linear" x1="57" y1="34" x2="6.86301" y2="15.1986" gradientUnits="userSpaceOnUse">
<stop stop-color="#FAC011"/>
<stop offset="1" stop-color="#4CA1AF"/>
</linearGradient>
</defs>
</svg>
