<svg width="217" height="115" viewBox="0 0 217 115" fill="none" xmlns="http://www.w3.org/2000/svg">
<path d="M3 0V112H216.333" stroke="white" stroke-width="5.33333"/>
<path d="M32.5093 53H41.2453V34.2587H48.9359V26.8667H24.8186V34.2587H32.5093V53ZM50.6859 53H59.1606V47.8107C59.1606 43.2933 61.0646 41.3147 64.6486 41.3147H65.5446V32.3173C62.1473 32.168 60.3179 33.9973 59.1606 36.7227V32.616H50.6859V53ZM71.9335 53.4853C74.4722 53.4853 76.3389 52.4773 77.7949 50.9467V53H86.2696V41.3893C86.2696 38.4027 85.6722 36.4613 84.1416 34.9307C82.3496 33.1387 79.6989 32.28 75.5176 32.28C71.9335 32.28 69.3202 32.8773 66.9309 33.7733L68.4242 39.4107C70.2162 38.7013 71.9709 38.2533 74.0615 38.2533C76.7122 38.2533 77.8322 39.2987 77.8322 41.2027V41.5387C76.9362 41.128 74.7336 40.792 73.0162 40.792C68.2375 40.792 65.2509 43.0693 65.2509 47.1387V47.2133C65.2509 51.2453 68.0135 53.4853 71.9335 53.4853ZM75.2935 48.5947C74.2109 48.5947 73.3522 47.8107 73.3522 46.616V46.5413C73.3522 45.2347 74.2856 44.264 75.9655 44.264C76.6749 44.264 77.4216 44.4133 77.9069 44.6V45.4587C77.9069 47.4 76.7869 48.5947 75.2935 48.5947ZM96.8515 53.4853C99.9502 53.4853 101.518 51.992 102.9 50.4987V53H111.374V25.7467H102.9V34.9307C101.593 33.4747 99.8755 32.1307 96.7768 32.1307C91.9982 32.1307 88.0782 36.424 88.0782 42.8827V42.9573C88.0782 49.192 91.9235 53.4853 96.8515 53.4853ZM99.6888 46.504C97.7475 46.504 96.2915 44.936 96.2915 42.8453V42.7707C96.2915 40.68 97.7475 39.112 99.6888 39.112C101.63 39.112 103.086 40.7547 103.086 42.7707V42.8453C103.086 44.936 101.63 46.504 99.6888 46.504ZM124.47 53.4853C128.913 53.4853 131.713 51.6933 133.766 49.0427L129.211 45.4213C127.867 46.8027 126.598 47.512 125.067 47.512C123.238 47.512 121.819 46.5787 121.222 44.7867H134.326C134.363 44.3387 134.363 43.816 134.363 43.368C134.363 37.1707 131.041 32.1307 123.761 32.1307C117.638 32.1307 113.27 36.76 113.27 42.8453V42.92C113.27 49.2667 117.75 53.4853 124.47 53.4853ZM121.11 41.0533C121.371 39.1493 122.342 37.992 123.798 37.992C125.291 37.992 126.449 39.112 126.635 41.0533H121.11ZM136.217 53H144.692V47.8107C144.692 43.2933 146.596 41.3147 150.18 41.3147H151.076V32.3173C147.679 32.168 145.849 33.9973 144.692 36.7227V32.616H136.217V53ZM25.8266 90H34.5626V80.6293H42.5519V90H51.2879V63.8667H42.5519V73.088H34.5626V63.8667H25.8266V90ZM60.8721 90.4853C63.7468 90.4853 65.8001 88.9547 67.1068 87.2747V90H75.5814V69.616H67.1068V80.3307C67.1068 82.0853 65.9868 83.0933 64.6801 83.0933C63.3734 83.0933 62.3654 82.0853 62.3654 80.3307V69.616H53.8908V83.056C53.8908 87.6853 56.5414 90.4853 60.8721 90.4853ZM92.6999 90.4853C97.4786 90.4853 101.399 86.192 101.399 79.7333V79.6587C101.399 73.424 97.5533 69.1307 92.6253 69.1307C89.5266 69.1307 87.9586 70.624 86.5773 72.1173V62.7467H78.1026V90H86.5773V87.6853C87.8839 89.1413 89.6013 90.4853 92.6999 90.4853ZM89.7879 83.504C87.8466 83.504 86.3906 81.8613 86.3906 79.8453V79.7707C86.3906 77.68 87.8466 76.112 89.7879 76.112C91.7293 76.112 93.1853 77.68 93.1853 79.7707V79.8453C93.1853 81.936 91.7293 83.504 89.7879 83.504Z" fill="white"/>
</svg>
