<svg width="58" height="58" viewBox="0 0 58 58" fill="none" xmlns="http://www.w3.org/2000/svg">
<path d="M57.977 46.6587V41.5552H52.5331V38.1528H50.7185V35.3174H52.5331V30.2139H38.9641V31.9151H50.832V33.6163H15.6334V35.3174H49.0172V38.1528H11.9879C11.2062 38.1528 10.5703 37.5169 10.5703 36.7351C10.5703 35.9534 11.2062 35.3174 11.9879 35.3174H13.9322V33.6163H11.9879C10.2683 33.6163 8.8691 35.0153 8.8691 36.7351C8.8691 38.4549 10.2683 39.854 11.9879 39.854H50.8318V41.5552H21.5146V43.2563H56.2757V44.9575H8.24533C5.5875 44.9575 3.42528 47.1198 3.42528 49.7776C3.42528 52.4354 5.5875 54.5976 8.24533 54.5976H48.3124V52.8964H8.24544C6.52565 52.8964 5.12659 51.4974 5.12659 49.7776C5.12659 48.0578 6.52565 46.6587 8.24544 46.6587H54.4612V49.494H16.7514V51.1952H54.4612V52.8964H50.0137V54.5976H56.2758V56.2988H8.24544C4.64957 56.2988 1.7242 53.3734 1.7242 49.7776C1.7242 46.1817 4.64957 43.2563 8.24544 43.2563H19.8135V41.5552H11.9881C9.33023 41.5552 7.16802 39.3929 7.16802 36.7351C7.16802 34.0773 9.33023 31.9151 11.9881 31.9151H37.2629V30.2139H11.9881C8.3922 30.2139 5.46683 33.1392 5.46683 36.7351C5.46683 38.6565 6.30256 40.3861 7.62915 41.5807C3.3823 41.8972 0.0230103 45.4512 0.0230103 49.7776C0.0230103 54.3115 3.71154 58 8.24544 58H57.977V52.8964H56.1624V46.6587H57.977Z" fill="url(#paint0_linear)"/>
<path d="M13.3491 49.494H15.0503V51.1952H13.3491V49.494Z" fill="url(#paint1_linear)"/>
<path d="M15.674 25.2819L16.0528 25.5344C16.2004 25.6329 19.7754 27.9456 29 27.9456C38.2245 27.9456 41.7995 25.6329 41.9472 25.5344L42.326 25.2819V10.9608L47.4296 9.25959V17.2902C46.1222 17.6615 45.1613 18.8654 45.1613 20.2902V24.5432H51.399V20.2902C51.399 18.8654 50.4382 17.6615 49.1308 17.2902V8.69252L52.1041 7.70141L43.171 4.72364L42.633 6.33751L46.7245 7.7013L29 13.6095L11.2755 7.70141L29 1.79328L41.0191 5.7997L41.5572 4.18584L29 0L5.89587 7.70141L15.674 10.9608V25.2819ZM49.6978 20.2902V22.842H46.8625V20.2902C46.8625 19.5085 47.4984 18.8726 48.2802 18.8726C49.0619 18.8726 49.6978 19.5085 49.6978 20.2902ZM17.3752 11.5278L29 15.4028L40.6248 11.5278V18.1921H38.5267V19.8933H40.6248V21.5945H36.9389V23.2957H40.6248V24.3211C39.5286 24.855 36.0015 26.2444 29 26.2444C21.9931 26.2444 18.466 24.8528 17.3752 24.3216V11.5278Z" fill="url(#paint2_linear)"/>
<path d="M9.94666 49.494H11.6478V51.1952H9.94666V49.494Z" fill="url(#paint3_linear)"/>
<path d="M33.5365 21.5945H35.2377V23.2957H33.5365V21.5945Z" fill="url(#paint4_linear)"/>
<defs>
<linearGradient id="paint0_linear" x1="57.977" y1="58" x2="0.826855" y2="31.9253" gradientUnits="userSpaceOnUse">
<stop stop-color="#FAC011"/>
<stop offset="1" stop-color="#4CA1AF"/>
</linearGradient>
<linearGradient id="paint1_linear" x1="15.0503" y1="51.1952" x2="13.116" y2="50.7721" gradientUnits="userSpaceOnUse">
<stop stop-color="#FAC011"/>
<stop offset="1" stop-color="#4CA1AF"/>
</linearGradient>
<linearGradient id="paint2_linear" x1="52.1041" y1="27.9456" x2="3.4206" y2="10.3365" gradientUnits="userSpaceOnUse">
<stop stop-color="#FAC011"/>
<stop offset="1" stop-color="#4CA1AF"/>
</linearGradient>
<linearGradient id="paint3_linear" x1="11.6478" y1="51.1952" x2="9.71359" y2="50.7721" gradientUnits="userSpaceOnUse">
<stop stop-color="#FAC011"/>
<stop offset="1" stop-color="#4CA1AF"/>
</linearGradient>
<linearGradient id="paint4_linear" x1="35.2377" y1="23.2957" x2="33.3034" y2="22.8726" gradientUnits="userSpaceOnUse">
<stop stop-color="#FAC011"/>
<stop offset="1" stop-color="#4CA1AF"/>
</linearGradient>
</defs>
</svg>
