<svg width="18" height="18" viewBox="0 0 18 19" fill="none" xmlns="http://www.w3.org/2000/svg">
<path d="M3 13.8046H3.75H4.5V16.8654L8.32575 13.8046H9H12C12.8273 13.8046 13.5 13.1319 13.5 12.3046V6.30463C13.5 5.47738 12.8273 4.80463 12 4.80463H3C2.17275 4.80463 1.5 5.47738 1.5 6.30463V12.3046C1.5 13.1319 2.17275 13.8046 3 13.8046Z" fill="#383838" fill-opacity="0.84"/>
<path d="M15 1.80463H14.25H12.7485H6.75H6C5.17275 1.80463 4.5 2.47738 4.5 3.30463H6.75H12.4395H13.5C14.3273 3.30463 15 3.97738 15 4.80463V5.86513V8.55463V10.8046C15.8273 10.8046 16.5 10.1319 16.5 9.30463V8.55463V5.55463V4.05463V3.30463C16.5 2.47738 15.8273 1.80463 15 1.80463Z" fill="#383838" fill-opacity="0.84"/>
</svg>
