<svg width="18" height="18" viewBox="0 0 18 18" fill="none" xmlns="http://www.w3.org/2000/svg">
<path d="M3.75 1.5H5.25V3.75H3.75V1.5ZM6.75 1.5H8.25V3.75H6.75V1.5ZM9.75 1.5H11.25V3.75H9.75V1.5ZM14.25 6.75H12.75V6C12.75 5.58525 12.4148 5.25 12 5.25H3C2.58525 5.25 2.25 5.58525 2.25 6V13.5C2.25 14.7428 3.25725 15.75 4.5 15.75H10.5C11.7428 15.75 12.75 14.7428 12.75 13.5H14.25C15.0773 13.5 15.75 12.8273 15.75 12V8.25C15.75 7.42275 15.0773 6.75 14.25 6.75ZM12.75 12V8.25H14.25L14.2515 12H12.75Z" fill="#C39B35"/>
</svg>
