<svg width="154" height="19" viewBox="0 0 154 19" fill="none" xmlns="http://www.w3.org/2000/svg">
<rect x="0.625" y="1.625" width="143.75" height="16.75" rx="8.375" fill="url(#paint0_linear)" stroke="url(#paint1_linear)" stroke-width="0.75"/>
<path d="M14.588 11.822C14.602 11.654 14.602 11.542 14.602 11.444C14.602 9.316 13.37 7.608 11.228 7.608C9.212 7.608 7.756 9.288 7.756 11.388C7.756 13.642 9.394 15.168 11.368 15.168C12.754 15.168 13.622 14.636 14.35 13.81L13.678 13.208C13.076 13.824 12.404 14.23 11.396 14.23C10.122 14.23 9.002 13.348 8.848 11.822H14.588ZM8.848 10.954C9.002 9.554 9.968 8.518 11.2 8.518C12.614 8.518 13.398 9.652 13.51 10.954H8.848ZM15.4073 15H16.6113L18.8653 12.046L21.1053 15H22.3513L19.4953 11.29L22.2393 7.762H21.0353L18.8933 10.562L16.7513 7.762H15.5193L18.2493 11.318L15.4073 15ZM24.1044 17.24H25.1824V13.614C25.7424 14.44 26.6104 15.154 27.9544 15.154C29.7044 15.154 31.4124 13.74 31.4124 11.388V11.36C31.4124 8.98 29.6904 7.608 27.9544 7.608C26.6104 7.608 25.7844 8.364 25.1824 9.218V7.762H24.1044V17.24ZM27.7584 14.188C26.4144 14.188 25.1404 13.068 25.1404 11.388V11.36C25.1404 9.722 26.4144 8.574 27.7584 8.574C29.1444 8.574 30.3064 9.652 30.3064 11.374V11.402C30.3064 13.152 29.1584 14.188 27.7584 14.188ZM39.7853 11.822C39.7993 11.654 39.7993 11.542 39.7993 11.444C39.7993 9.316 38.5673 7.608 36.4253 7.608C34.4093 7.608 32.9533 9.288 32.9533 11.388C32.9533 13.642 34.5913 15.168 36.5653 15.168C37.9513 15.168 38.8193 14.636 39.5473 13.81L38.8753 13.208C38.2733 13.824 37.6013 14.23 36.5933 14.23C35.3193 14.23 34.1993 13.348 34.0453 11.822H39.7853ZM34.0453 10.954C34.1993 9.554 35.1653 8.518 36.3973 8.518C37.8113 8.518 38.5953 9.652 38.7073 10.954H34.0453ZM41.6864 15H42.7644V12.116C42.7644 9.932 44.0524 8.798 45.6344 8.798H45.7184V7.636C44.3464 7.594 43.2964 8.448 42.7644 9.652V7.762H41.6864V15ZM47.3883 6.18H48.6203V4.99H47.3883V6.18ZM47.4583 15H48.5363V7.762H47.4583V15ZM57.422 11.822C57.436 11.654 57.436 11.542 57.436 11.444C57.436 9.316 56.204 7.608 54.062 7.608C52.046 7.608 50.59 9.288 50.59 11.388C50.59 13.642 52.228 15.168 54.202 15.168C55.588 15.168 56.456 14.636 57.184 13.81L56.512 13.208C55.91 13.824 55.238 14.23 54.23 14.23C52.956 14.23 51.836 13.348 51.682 11.822H57.422ZM51.682 10.954C51.836 9.554 52.802 8.518 54.034 8.518C55.448 8.518 56.232 9.652 56.344 10.954H51.682ZM59.3231 15H60.4011V10.856C60.4011 9.498 61.3251 8.588 62.5711 8.588C63.8591 8.588 64.5731 9.428 64.5731 10.772V15H65.6511V10.506C65.6511 8.784 64.6151 7.608 62.8791 7.608C61.6331 7.608 60.8911 8.238 60.4011 9.022V7.762H59.3231V15ZM71.2121 15.168C72.5701 15.168 73.4381 14.594 74.1661 13.768L73.4801 13.124C72.9061 13.74 72.2061 14.202 71.2681 14.202C69.7561 14.202 68.6081 12.956 68.6081 11.388V11.36C68.6081 9.792 69.7281 8.56 71.1981 8.56C72.1921 8.56 72.8221 9.05 73.3961 9.652L74.1101 8.896C73.4241 8.168 72.5841 7.608 71.2121 7.608C69.0841 7.608 67.5021 9.33 67.5021 11.388V11.416C67.5021 13.446 69.0841 15.168 71.2121 15.168ZM82.3321 11.822C82.3461 11.654 82.3461 11.542 82.3461 11.444C82.3461 9.316 81.1141 7.608 78.9721 7.608C76.9561 7.608 75.5001 9.288 75.5001 11.388C75.5001 13.642 77.1381 15.168 79.1121 15.168C80.4981 15.168 81.3661 14.636 82.0941 13.81L81.4221 13.208C80.8201 13.824 80.1481 14.23 79.1401 14.23C77.8661 14.23 76.7461 13.348 76.5921 11.822H82.3321ZM76.5921 10.954C76.7461 9.554 77.7121 8.518 78.9441 8.518C80.3581 8.518 81.1421 9.652 81.2541 10.954H76.5921ZM87.2713 15.154C88.6153 15.154 89.4413 14.412 90.0433 13.544V15H91.1213V4.78H90.0433V9.148C89.4833 8.322 88.6153 7.608 87.2713 7.608C85.5353 7.608 83.8133 9.022 83.8133 11.374V11.402C83.8133 13.782 85.5353 15.154 87.2713 15.154ZM87.4673 14.188C86.0813 14.188 84.9193 13.11 84.9193 11.388V11.36C84.9193 9.61 86.0673 8.574 87.4673 8.574C88.8113 8.574 90.0853 9.694 90.0853 11.36V11.388C90.0853 13.054 88.8113 14.188 87.4673 14.188ZM100.149 15.126C100.667 15.126 101.073 15.028 101.451 14.818V13.894C101.073 14.076 100.779 14.146 100.401 14.146C99.6734 14.146 99.1834 13.838 99.1834 12.942V8.714H101.479V7.762H99.1834V5.578H98.1054V7.762H97.0974V8.714H98.1054V13.082C98.1054 14.552 98.9734 15.126 100.149 15.126ZM103.388 15H104.466V12.116C104.466 9.932 105.754 8.798 107.336 8.798H107.42V7.636C106.048 7.594 104.998 8.448 104.466 9.652V7.762H103.388V15ZM110.862 15.154C112.136 15.154 112.962 14.58 113.466 13.922V15H114.53V10.576C114.53 9.666 114.278 8.952 113.774 8.448C113.242 7.916 112.458 7.65 111.436 7.65C110.372 7.65 109.602 7.888 108.804 8.266L109.126 9.148C109.798 8.826 110.47 8.63 111.324 8.63C112.682 8.63 113.466 9.302 113.466 10.59V10.814C112.808 10.632 112.192 10.506 111.254 10.506C109.42 10.506 108.16 11.318 108.16 12.872V12.9C108.16 14.398 109.504 15.154 110.862 15.154ZM111.072 14.286C110.106 14.286 109.252 13.754 109.252 12.844V12.816C109.252 11.934 110.022 11.36 111.366 11.36C112.262 11.36 112.934 11.514 113.48 11.668V12.34C113.48 13.502 112.402 14.286 111.072 14.286ZM119.851 15.154C121.195 15.154 122.021 14.412 122.623 13.544V15H123.701V4.78H122.623V9.148C122.063 8.322 121.195 7.608 119.851 7.608C118.115 7.608 116.393 9.022 116.393 11.374V11.402C116.393 13.782 118.115 15.154 119.851 15.154ZM120.047 14.188C118.661 14.188 117.499 13.11 117.499 11.388V11.36C117.499 9.61 118.647 8.574 120.047 8.574C121.391 8.574 122.665 9.694 122.665 11.36V11.388C122.665 13.054 121.391 14.188 120.047 14.188ZM132.494 11.822C132.508 11.654 132.508 11.542 132.508 11.444C132.508 9.316 131.276 7.608 129.134 7.608C127.118 7.608 125.662 9.288 125.662 11.388C125.662 13.642 127.3 15.168 129.274 15.168C130.66 15.168 131.528 14.636 132.256 13.81L131.584 13.208C130.982 13.824 130.31 14.23 129.302 14.23C128.028 14.23 126.908 13.348 126.754 11.822H132.494ZM126.754 10.954C126.908 9.554 127.874 8.518 129.106 8.518C130.52 8.518 131.304 9.652 131.416 10.954H126.754ZM134.395 15H135.473V12.116C135.473 9.932 136.761 8.798 138.343 8.798H138.427V7.636C137.055 7.594 136.005 8.448 135.473 9.652V7.762H134.395V15Z" fill="white"/>
<defs>
<linearGradient id="paint0_linear" x1="1" y1="-7.5" x2="0.629336" y2="27.5032" gradientUnits="userSpaceOnUse">
<stop stop-color="#8B8B8B"/>
<stop offset="0.287557" stop-color="#E2E2E2"/>
<stop offset="0.505133" stop-color="#8B8B8B"/>
<stop offset="0.704231" stop-color="#E2E2E2"/>
<stop offset="1" stop-color="#8B8B8B"/>
</linearGradient>
<linearGradient id="paint1_linear" x1="144" y1="18" x2="0.999999" y2="18" gradientUnits="userSpaceOnUse">
<stop stop-color="#8B8B8B"/>
<stop offset="0.287557" stop-color="#E2E2E2"/>
<stop offset="0.505133" stop-color="#8B8B8B"/>
<stop offset="0.704231" stop-color="#E2E2E2"/>
<stop offset="1" stop-color="#8B8B8B"/>
</linearGradient>
</defs>
</svg>
