<svg width="16" height="16" viewBox="0 0 16 16" fill="none" xmlns="http://www.w3.org/2000/svg">
<path d="M8 3.33334C2.91133 3.33334 1.382 7.74467 1.368 7.78934L1.29733 8L1.36733 8.21067C1.382 8.25534 2.91133 12.6667 8 12.6667C13.0887 12.6667 14.618 8.25534 14.632 8.21067L14.7027 8L14.6327 7.78934C14.618 7.74467 13.0887 3.33334 8 3.33334ZM8 10.6667C6.52933 10.6667 5.33333 9.47067 5.33333 8C5.33333 6.52934 6.52933 5.33334 8 5.33334C9.47067 5.33334 10.6667 6.52934 10.6667 8C10.6667 9.47067 9.47067 10.6667 8 10.6667Z" fill="#383838" fill-opacity="0.84"/>
<path d="M7.99999 6.66666C7.27732 6.66666 6.66666 7.27733 6.66666 8C6.66666 8.72266 7.27732 9.33333 7.99999 9.33333C8.72266 9.33333 9.33332 8.72266 9.33332 8C9.33332 7.27733 8.72266 6.66666 7.99999 6.66666Z" fill="#383838" fill-opacity="0.84"/>
</svg>
