<svg width="117" height="19" viewBox="0 0 117 19" fill="none" xmlns="http://www.w3.org/2000/svg">
<rect x="0.625" y="1.625" width="111.75" height="16.75" rx="8.375" fill="url(#paint0_linear)" stroke="url(#paint1_linear)" stroke-width="0.75"/>
<path d="M11.41 17.268C12.572 17.268 13.51 16.96 14.168 16.302C14.77 15.7 15.092 14.86 15.092 13.74V7.762H14.014V9.064C13.412 8.28 12.544 7.608 11.186 7.608C9.45 7.608 7.784 8.91 7.784 11.024V11.052C7.784 13.124 9.45 14.44 11.186 14.44C12.516 14.44 13.398 13.754 14.028 12.914V13.768C14.028 15.462 13.006 16.344 11.396 16.344C10.346 16.344 9.45 16.022 8.61 15.42L8.12 16.26C9.086 16.932 10.192 17.268 11.41 17.268ZM11.396 13.488C10.052 13.488 8.89 12.48 8.89 11.024V10.996C8.89 9.512 10.01 8.56 11.396 8.56C12.768 8.56 14.056 9.526 14.056 11.01V11.038C14.056 12.494 12.768 13.488 11.396 13.488ZM20.8049 15.168C22.9889 15.168 24.5989 13.446 24.5989 11.388V11.36C24.5989 9.316 23.0169 7.608 20.8329 7.608C18.6349 7.608 17.0529 9.33 17.0529 11.388V11.416C17.0529 13.46 18.6349 15.168 20.8049 15.168ZM20.8329 14.202C19.3069 14.202 18.1589 12.942 18.1589 11.388V11.36C18.1589 9.834 19.2369 8.56 20.8049 8.56C22.3309 8.56 23.4929 9.834 23.4929 11.388V11.416C23.4929 12.928 22.4009 14.202 20.8329 14.202ZM29.5897 15.154C30.9337 15.154 31.7597 14.412 32.3617 13.544V15H33.4397V4.78H32.3617V9.148C31.8017 8.322 30.9337 7.608 29.5897 7.608C27.8537 7.608 26.1317 9.022 26.1317 11.374V11.402C26.1317 13.782 27.8537 15.154 29.5897 15.154ZM29.7857 14.188C28.3997 14.188 27.2377 13.11 27.2377 11.388V11.36C27.2377 9.61 28.3857 8.574 29.7857 8.574C31.1297 8.574 32.4037 9.694 32.4037 11.36V11.388C32.4037 13.054 31.1297 14.188 29.7857 14.188ZM35.9465 15H37.0245V4.78H35.9465V15ZM39.5543 6.18H40.7863V4.99H39.5543V6.18ZM39.6243 15H40.7023V7.762H39.6243V15ZM43.204 15H44.282V13.11L45.752 11.626L48.342 15H49.63L46.494 10.87L49.532 7.762H48.188L44.282 11.836V4.78H43.204V15ZM57.5587 11.822C57.5727 11.654 57.5727 11.542 57.5727 11.444C57.5727 9.316 56.3407 7.608 54.1987 7.608C52.1827 7.608 50.7267 9.288 50.7267 11.388C50.7267 13.642 52.3647 15.168 54.3387 15.168C55.7247 15.168 56.5927 14.636 57.3207 13.81L56.6487 13.208C56.0467 13.824 55.3747 14.23 54.3667 14.23C53.0927 14.23 51.9727 13.348 51.8187 11.822H57.5587ZM51.8187 10.954C51.9727 9.554 52.9387 8.518 54.1707 8.518C55.5847 8.518 56.3687 9.652 56.4807 10.954H51.8187ZM66.0791 15.126C66.5971 15.126 67.0031 15.028 67.3811 14.818V13.894C67.0031 14.076 66.7091 14.146 66.3311 14.146C65.6031 14.146 65.1131 13.838 65.1131 12.942V8.714H67.4091V7.762H65.1131V5.578H64.0351V7.762H63.0271V8.714H64.0351V13.082C64.0351 14.552 64.9031 15.126 66.0791 15.126ZM69.3173 15H70.3953V12.116C70.3953 9.932 71.6833 8.798 73.2653 8.798H73.3493V7.636C71.9773 7.594 70.9273 8.448 70.3953 9.652V7.762H69.3173V15ZM76.7916 15.154C78.0656 15.154 78.8916 14.58 79.3956 13.922V15H80.4596V10.576C80.4596 9.666 80.2076 8.952 79.7036 8.448C79.1716 7.916 78.3876 7.65 77.3656 7.65C76.3016 7.65 75.5316 7.888 74.7336 8.266L75.0556 9.148C75.7276 8.826 76.3996 8.63 77.2536 8.63C78.6116 8.63 79.3956 9.302 79.3956 10.59V10.814C78.7376 10.632 78.1216 10.506 77.1836 10.506C75.3496 10.506 74.0896 11.318 74.0896 12.872V12.9C74.0896 14.398 75.4336 15.154 76.7916 15.154ZM77.0016 14.286C76.0356 14.286 75.1816 13.754 75.1816 12.844V12.816C75.1816 11.934 75.9516 11.36 77.2956 11.36C78.1916 11.36 78.8636 11.514 79.4096 11.668V12.34C79.4096 13.502 78.3316 14.286 77.0016 14.286ZM85.7811 15.154C87.1251 15.154 87.9511 14.412 88.5531 13.544V15H89.6311V4.78H88.5531V9.148C87.9931 8.322 87.1251 7.608 85.7811 7.608C84.0451 7.608 82.3231 9.022 82.3231 11.374V11.402C82.3231 13.782 84.0451 15.154 85.7811 15.154ZM85.9771 14.188C84.5911 14.188 83.4291 13.11 83.4291 11.388V11.36C83.4291 9.61 84.5771 8.574 85.9771 8.574C87.3211 8.574 88.5951 9.694 88.5951 11.36V11.388C88.5951 13.054 87.3211 14.188 85.9771 14.188ZM98.4239 11.822C98.4379 11.654 98.4379 11.542 98.4379 11.444C98.4379 9.316 97.2059 7.608 95.0639 7.608C93.0479 7.608 91.5919 9.288 91.5919 11.388C91.5919 13.642 93.2299 15.168 95.2039 15.168C96.5899 15.168 97.4579 14.636 98.1859 13.81L97.5139 13.208C96.9119 13.824 96.2399 14.23 95.2319 14.23C93.9579 14.23 92.8379 13.348 92.6839 11.822H98.4239ZM92.6839 10.954C92.8379 9.554 93.8039 8.518 95.0359 8.518C96.4499 8.518 97.2339 9.652 97.3459 10.954H92.6839ZM100.325 15H101.403V12.116C101.403 9.932 102.691 8.798 104.273 8.798H104.357V7.636C102.985 7.594 101.935 8.448 101.403 9.652V7.762H100.325V15Z" fill="white"/>
<defs>
<linearGradient id="paint0_linear" x1="1" y1="-9.5" x2="0.999999" y2="25" gradientUnits="userSpaceOnUse">
<stop stop-color="#3F63BF"/>
<stop offset="0.342323" stop-color="#DBBAFC"/>
<stop offset="0.505133" stop-color="#3F63BF"/>
<stop offset="0.767559" stop-color="#DBBAFC"/>
<stop offset="1" stop-color="#3F63BF"/>
</linearGradient>
<linearGradient id="paint1_linear" x1="112" y1="10" x2="1" y2="10" gradientUnits="userSpaceOnUse">
<stop stop-color="#3F63BF"/>
<stop offset="0.342323" stop-color="#DBBAFC"/>
<stop offset="0.505133" stop-color="#3F63BF"/>
<stop offset="0.767559" stop-color="#DBBAFC"/>
<stop offset="1" stop-color="#3F63BF"/>
</linearGradient>
</defs>
</svg>
