<svg width="54" height="54" viewBox="0 0 54 54" fill="none" xmlns="http://www.w3.org/2000/svg">
<path fill-rule="evenodd" clip-rule="evenodd" d="M41.7511 26.6139C41.7246 18.5377 35.1491 12 27.0484 12C18.9447 12 12.3707 18.5377 12.3442 26.6139C12.3442 26.6064 12.3439 26.6 12.3435 26.5938C12.3431 26.588 12.3428 26.5822 12.3428 26.5758V26.6549V26.6593V26.6608V26.7399C12.3428 26.7297 12.3428 26.7179 12.3442 26.7062C12.3692 34.7839 18.9433 41.3245 27.0484 41.3245C35.1506 41.3245 41.7246 34.7868 41.7511 26.7106C41.7511 26.7172 41.7515 26.7234 41.7518 26.7297C41.752 26.7326 41.7522 26.7356 41.7523 26.7386C41.7525 26.7419 41.7526 26.7453 41.7526 26.7487V26.6696V26.6623V26.6549V26.5758C41.7526 26.5905 41.7511 26.6007 41.7511 26.6139ZM23.0414 33.3289C19.3547 33.3289 16.3587 30.3414 16.3587 26.6637C16.3587 22.9861 19.3547 19.9985 23.0414 19.9985C24.8488 19.9985 26.3593 20.6593 27.5172 21.7392L25.6143 23.578C25.1368 23.1253 24.2934 22.5919 23.0414 22.5919C20.83 22.5919 19.0256 24.4249 19.0256 26.6725C19.0256 28.9187 20.8315 30.7516 23.0414 30.7516C25.6011 30.7516 26.5445 28.9846 26.7178 27.9385H23.0385V27.9326V25.4506H29.2907C29.3877 25.8696 29.4597 26.2623 29.4597 26.8161C29.4597 30.6212 26.9 33.3289 23.0414 33.3289ZM35.7355 27.3289H38.4083V25.3304H35.7355V22.6637H33.7312V25.3304H31.0569V27.3289H33.7312V29.9941H35.7355V27.3289Z" fill="#FE4D4D"/>
</svg>
