<svg width="14" height="14" viewBox="0 0 14 14" fill="none" xmlns="http://www.w3.org/2000/svg">
<circle cx="7" cy="7" r="7" fill="#2C3E50" fill-opacity="0.84"/>
<path d="M8.25 6.82748V4.49998H9.08333V3.66665C9.08333 3.20665 8.71 2.83331 8.25 2.83331H5.75C5.29 2.83331 4.91667 3.20665 4.91667 3.66665V4.49998H5.75V6.82748L4.62208 7.53873C4.54375 7.61665 4.5 7.72248 4.5 7.83331V8.66665C4.5 8.89706 4.68667 9.08331 4.91667 9.08331H5.75H6.58333V10.3333L7 11.1666L7.41667 10.3333V9.08331H9.08333C9.31375 9.08331 9.5 8.89706 9.5 8.66665V7.83331C9.5 7.72248 9.45625 7.61665 9.37792 7.53873L8.25 6.82748Z" fill="white"/>
</svg>
