<svg width="150" height="19" viewBox="0 0 150 19" fill="none" xmlns="http://www.w3.org/2000/svg">
<rect x="0.625" y="1.625" width="146.75" height="16.75" rx="8.375" fill="url(#paint0_linear)" stroke="url(#paint1_linear)" stroke-width="0.75"/>
<path d="M10.204 17.24H11.282V13.614C11.842 14.44 12.71 15.154 14.054 15.154C15.804 15.154 17.512 13.74 17.512 11.388V11.36C17.512 8.98 15.79 7.608 14.054 7.608C12.71 7.608 11.884 8.364 11.282 9.218V7.762H10.204V17.24ZM13.858 14.188C12.514 14.188 11.24 13.068 11.24 11.388V11.36C11.24 9.722 12.514 8.574 13.858 8.574C15.244 8.574 16.406 9.652 16.406 11.374V11.402C16.406 13.152 15.258 14.188 13.858 14.188ZM19.5009 15H20.5789V12.116C20.5789 9.932 21.8669 8.798 23.4489 8.798H23.5329V7.636C22.1609 7.594 21.1109 8.448 20.5789 9.652V7.762H19.5009V15ZM28.4787 15.168C30.6627 15.168 32.2727 13.446 32.2727 11.388V11.36C32.2727 9.316 30.6907 7.608 28.5067 7.608C26.3087 7.608 24.7267 9.33 24.7267 11.388V11.416C24.7267 13.46 26.3087 15.168 28.4787 15.168ZM28.5067 14.202C26.9807 14.202 25.8327 12.942 25.8327 11.388V11.36C25.8327 9.834 26.9107 8.56 28.4787 8.56C30.0047 8.56 31.1667 9.834 31.1667 11.388V11.416C31.1667 12.928 30.0747 14.202 28.5067 14.202ZM34.6315 15H35.7095V8.714H37.9915V7.79H35.6955V7.202C35.6955 6.18 36.1155 5.662 36.9555 5.662C37.3335 5.662 37.6135 5.732 38.0055 5.844V4.906C37.6555 4.78 37.3195 4.724 36.8155 4.724C36.1575 4.724 35.6395 4.906 35.2615 5.284C34.8415 5.704 34.6315 6.32 34.6315 7.146V7.776H33.6375V8.714H34.6315V15ZM45.7501 11.822C45.7641 11.654 45.7641 11.542 45.7641 11.444C45.7641 9.316 44.5321 7.608 42.3901 7.608C40.3741 7.608 38.9181 9.288 38.9181 11.388C38.9181 13.642 40.5561 15.168 42.5301 15.168C43.9161 15.168 44.7841 14.636 45.5121 13.81L44.8401 13.208C44.2381 13.824 43.5661 14.23 42.5581 14.23C41.2841 14.23 40.1641 13.348 40.0101 11.822H45.7501ZM40.0101 10.954C40.1641 9.554 41.1301 8.518 42.3621 8.518C43.7761 8.518 44.5601 9.652 44.6721 10.954H40.0101ZM50.0453 15.14C51.4873 15.14 52.6213 14.342 52.6213 12.97V12.942C52.6213 11.64 51.4173 11.206 50.2973 10.87C49.3313 10.576 48.4353 10.31 48.4353 9.624V9.596C48.4353 8.994 48.9813 8.546 49.8353 8.546C50.5493 8.546 51.3053 8.812 51.9773 9.246L52.4673 8.434C51.7253 7.944 50.7593 7.636 49.8633 7.636C48.4353 7.636 47.3993 8.462 47.3993 9.708V9.736C47.3993 11.08 48.6733 11.444 49.7933 11.78C50.7453 12.046 51.5993 12.34 51.5993 13.054V13.082C51.5993 13.796 50.9833 14.23 50.1013 14.23C49.2473 14.23 48.3793 13.908 47.5953 13.306L47.0493 14.076C47.8753 14.734 48.9953 15.14 50.0453 15.14ZM56.8812 15.14C58.3232 15.14 59.4572 14.342 59.4572 12.97V12.942C59.4572 11.64 58.2532 11.206 57.1332 10.87C56.1672 10.576 55.2712 10.31 55.2712 9.624V9.596C55.2712 8.994 55.8172 8.546 56.6712 8.546C57.3852 8.546 58.1412 8.812 58.8132 9.246L59.3032 8.434C58.5612 7.944 57.5952 7.636 56.6992 7.636C55.2712 7.636 54.2352 8.462 54.2352 9.708V9.736C54.2352 11.08 55.5092 11.444 56.6292 11.78C57.5812 12.046 58.4352 12.34 58.4352 13.054V13.082C58.4352 13.796 57.8192 14.23 56.9372 14.23C56.0832 14.23 55.2152 13.908 54.4312 13.306L53.8852 14.076C54.7112 14.734 55.8312 15.14 56.8812 15.14ZM61.4879 6.18H62.7199V4.99H61.4879V6.18ZM61.5579 15H62.6359V7.762H61.5579V15ZM68.4416 15.168C70.6256 15.168 72.2356 13.446 72.2356 11.388V11.36C72.2356 9.316 70.6536 7.608 68.4696 7.608C66.2716 7.608 64.6896 9.33 64.6896 11.388V11.416C64.6896 13.46 66.2716 15.168 68.4416 15.168ZM68.4696 14.202C66.9436 14.202 65.7956 12.942 65.7956 11.388V11.36C65.7956 9.834 66.8736 8.56 68.4416 8.56C69.9676 8.56 71.1296 9.834 71.1296 11.388V11.416C71.1296 12.928 70.0376 14.202 68.4696 14.202ZM74.1884 15H75.2664V10.856C75.2664 9.498 76.1904 8.588 77.4364 8.588C78.7244 8.588 79.4384 9.428 79.4384 10.772V15H80.5164V10.506C80.5164 8.784 79.4804 7.608 77.7444 7.608C76.4984 7.608 75.7564 8.238 75.2664 9.022V7.762H74.1884V15ZM84.9713 15.154C86.2453 15.154 87.0713 14.58 87.5753 13.922V15H88.6393V10.576C88.6393 9.666 88.3873 8.952 87.8833 8.448C87.3513 7.916 86.5673 7.65 85.5453 7.65C84.4813 7.65 83.7113 7.888 82.9133 8.266L83.2353 9.148C83.9073 8.826 84.5793 8.63 85.4333 8.63C86.7913 8.63 87.5753 9.302 87.5753 10.59V10.814C86.9173 10.632 86.3013 10.506 85.3633 10.506C83.5293 10.506 82.2693 11.318 82.2693 12.872V12.9C82.2693 14.398 83.6133 15.154 84.9713 15.154ZM85.1813 14.286C84.2153 14.286 83.3613 13.754 83.3613 12.844V12.816C83.3613 11.934 84.1313 11.36 85.4753 11.36C86.3713 11.36 87.0433 11.514 87.5893 11.668V12.34C87.5893 13.502 86.5113 14.286 85.1813 14.286ZM91.0208 15H92.0988V4.78H91.0208V15ZM101.22 15.126C101.738 15.126 102.144 15.028 102.522 14.818V13.894C102.144 14.076 101.85 14.146 101.472 14.146C100.744 14.146 100.254 13.838 100.254 12.942V8.714H102.55V7.762H100.254V5.578H99.1758V7.762H98.1678V8.714H99.1758V13.082C99.1758 14.552 100.044 15.126 101.22 15.126ZM104.458 15H105.536V12.116C105.536 9.932 106.824 8.798 108.406 8.798H108.49V7.636C107.118 7.594 106.068 8.448 105.536 9.652V7.762H104.458V15ZM111.932 15.154C113.206 15.154 114.032 14.58 114.536 13.922V15H115.6V10.576C115.6 9.666 115.348 8.952 114.844 8.448C114.312 7.916 113.528 7.65 112.506 7.65C111.442 7.65 110.672 7.888 109.874 8.266L110.196 9.148C110.868 8.826 111.54 8.63 112.394 8.63C113.752 8.63 114.536 9.302 114.536 10.59V10.814C113.878 10.632 113.262 10.506 112.324 10.506C110.49 10.506 109.23 11.318 109.23 12.872V12.9C109.23 14.398 110.574 15.154 111.932 15.154ZM112.142 14.286C111.176 14.286 110.322 13.754 110.322 12.844V12.816C110.322 11.934 111.092 11.36 112.436 11.36C113.332 11.36 114.004 11.514 114.55 11.668V12.34C114.55 13.502 113.472 14.286 112.142 14.286ZM120.922 15.154C122.266 15.154 123.092 14.412 123.694 13.544V15H124.772V4.78H123.694V9.148C123.134 8.322 122.266 7.608 120.922 7.608C119.186 7.608 117.464 9.022 117.464 11.374V11.402C117.464 13.782 119.186 15.154 120.922 15.154ZM121.118 14.188C119.732 14.188 118.57 13.11 118.57 11.388V11.36C118.57 9.61 119.718 8.574 121.118 8.574C122.462 8.574 123.736 9.694 123.736 11.36V11.388C123.736 13.054 122.462 14.188 121.118 14.188ZM133.565 11.822C133.579 11.654 133.579 11.542 133.579 11.444C133.579 9.316 132.347 7.608 130.205 7.608C128.189 7.608 126.733 9.288 126.733 11.388C126.733 13.642 128.371 15.168 130.345 15.168C131.731 15.168 132.599 14.636 133.327 13.81L132.655 13.208C132.053 13.824 131.381 14.23 130.373 14.23C129.099 14.23 127.979 13.348 127.825 11.822H133.565ZM127.825 10.954C127.979 9.554 128.945 8.518 130.177 8.518C131.591 8.518 132.375 9.652 132.487 10.954H127.825ZM135.466 15H136.544V12.116C136.544 9.932 137.832 8.798 139.414 8.798H139.498V7.636C138.126 7.594 137.076 8.448 136.544 9.652V7.762H135.466V15Z" fill="white"/>
<defs>
<linearGradient id="paint0_linear" x1="-1.06604" y1="-15" x2="-1.06604" y2="32" gradientUnits="userSpaceOnUse">
<stop stop-color="#BF953F"/>
<stop offset="0.342323" stop-color="#FCF6BA"/>
<stop offset="0.505133" stop-color="#B38728"/>
<stop offset="0.767559" stop-color="#FBF5B7"/>
<stop offset="1" stop-color="#AA771C"/>
</linearGradient>
<linearGradient id="paint1_linear" x1="74" y1="-0.499999" x2="74" y2="20.5" gradientUnits="userSpaceOnUse">
<stop stop-color="#BF953F"/>
<stop offset="0.342323" stop-color="#FCF6BA"/>
<stop offset="0.505133" stop-color="#B38728"/>
<stop offset="0.767559" stop-color="#FBF5B7"/>
<stop offset="1" stop-color="#AA771C"/>
</linearGradient>
</defs>
</svg>
